<svg xmlns="http://www.w3.org/2000/svg" width="184" height="37.61" viewBox="0 0 184 37.61">
  <g id="Logo_Lockup_-_Colour_-_Black" data-name="Logo Lockup - Colour - Black" transform="translate(92 18.805)">
    <g id="Group_152" data-name="Group 152" transform="translate(-92 -18.805)">
      <g id="logoMark">
        <path id="logoMark_CompoundPathItem_" data-name="logoMark &lt;CompoundPathItem&gt;" d="M25.247,26.885V19.453a17.308,17.308,0,1,0,7.433,7.433ZM17.306,43.02A8.194,8.194,0,1,1,25.5,34.827a8.194,8.194,0,0,1-8.194,8.194Z" transform="translate(0 -14.522)" fill="#1a1a1a"/>
        <path id="logoMark_PathItem_" data-name="logoMark &lt;PathItem&gt;" d="M170.144,10.231H159.913V0Z" transform="translate(-132.537)" fill="#c00"/>
      </g>
      <g id="type" transform="translate(43.072 15.664)">
        <path id="type_CompoundPathItem_" data-name="type &lt;CompoundPathItem&gt;" d="M255.746,96.681H251.6v-2.86h12.774v2.86h-4.147v8.484h-4.48Z" transform="translate(-251.599 -93.424)" fill="#1a1a1a"/>
        <path id="type_CompoundPathItem_2" data-name="type &lt;CompoundPathItem&gt;" d="M339.3,93.821h4.48v11.344H339.3Z" transform="translate(-324.29 -93.424)" fill="#1a1a1a"/>
        <path id="type_CompoundPathItem_3" data-name="type &lt;CompoundPathItem&gt;" d="M381.626,93.821h9.437a6.056,6.056,0,0,1,2.685.413,3.107,3.107,0,0,1,1.541,2.749,2.5,2.5,0,0,1-1.748,2.59V99.6a1.826,1.826,0,0,1,1.287,1.748l.191,2.478a2.53,2.53,0,0,0,.556,1.335h-4.893a7.375,7.375,0,0,1-.238-2.145c-.048-.842-.334-1.35-1.16-1.35h-3.178v3.5h-4.48Zm4.48,4.989h3.178c.874,0,1.239-.35,1.239-1.064,0-.858-.556-1.064-1.3-1.064h-3.114Z" transform="translate(-359.366 -93.424)" fill="#1a1a1a"/>
        <path id="type_CompoundPathItem_4" data-name="type &lt;CompoundPathItem&gt;" d="M473.973,93.821h12.059v2.764h-7.578v1.525h7.038v2.764h-7.038V102.4h7.578v2.764H473.973Z" transform="translate(-435.904 -93.424)" fill="#1a1a1a"/>
        <path id="type_CompoundPathItem_5" data-name="type &lt;CompoundPathItem&gt;" d="M566.922,98.825a5.321,5.321,0,0,1-1.906,3.527c-1.1.826-2.812,1.287-5.545,1.287-2.717,0-7.753-.191-7.753-6.069s5.036-6.069,7.753-6.069c2.7,0,6.863.35,7.451,4.846H561.87a2.229,2.229,0,0,0-2.4-1.986c-1.827,0-2.987.906-2.987,3.209s1.128,3.209,2.764,3.209a2.392,2.392,0,0,0,2.621-1.954Z" transform="translate(-500.34 -91.501)" fill="#1a1a1a"/>
        <path id="type_CompoundPathItem_6" data-name="type &lt;CompoundPathItem&gt;" d="M659.088,100.637h-5.036v4.528h-4.48V93.821h4.48v3.956h5.036V93.821h4.48v11.344h-4.48Z" transform="translate(-581.441 -93.424)" fill="#1a1a1a"/>
        <path id="type_CompoundPathItem_7" data-name="type &lt;CompoundPathItem&gt;" d="M744.052,93.821h12.059v2.764h-7.578v1.525h7.038v2.764h-7.038V102.4h7.578v2.764H744.052Z" transform="translate(-659.747 -93.424)" fill="#1a1a1a"/>
        <path id="type_CompoundPathItem_8" data-name="type &lt;CompoundPathItem&gt;" d="M837.867,98.825a5.321,5.321,0,0,1-1.906,3.527c-1.1.826-2.812,1.287-5.545,1.287-2.717,0-7.753-.191-7.753-6.069S827.7,91.5,830.416,91.5c2.7,0,6.863.35,7.451,4.846h-5.052a2.229,2.229,0,0,0-2.4-1.986c-1.827,0-2.987.906-2.987,3.209s1.128,3.209,2.764,3.209a2.392,2.392,0,0,0,2.622-1.954Z" transform="translate(-724.901 -91.501)" fill="#1a1a1a"/>
        <path id="type_CompoundPathItem_9" data-name="type &lt;CompoundPathItem&gt;" d="M927.279,100.812l-1.478,1.3v3.05h-4.48V93.821h4.48v4l4.163-4h5.942l-5.068,4.385,5.5,6.959h-5.958Z" transform="translate(-806.669 -93.424)" fill="#1a1a1a"/>
        <path id="type_CompoundPathItem_10" data-name="type &lt;CompoundPathItem&gt;" d="M1028.344,94.429V93.8h3.221v.631h-1.235v3.148h-.75V94.429Zm4.943-.631.966,2.705.972-2.705h1.074v3.779h-.693V94.528l-1.046,3.049h-.6l-1.055-3.049v3.049h-.693V93.8Z" transform="translate(-895.37 -93.405)" fill="#1a1a1a"/>
      </g>
    </g>
  </g>
</svg>
